<!-- Simple SVG Icon Placeholder -->
<svg width="256" height="256" xmlns="http://www.w3.org/2000/svg">
  <defs>
    <linearGradient id="grad1" x1="0%" y1="0%" x2="100%" y2="100%">
      <stop offset="0%" style="stop-color:#3b82f6;stop-opacity:1" />
      <stop offset="100%" style="stop-color:#8b5cf6;stop-opacity:1" />
    </linearGradient>
  </defs>
  
  <!-- Background -->
  <rect width="256" height="256" rx="64" fill="url(#grad1)"/>
  
  <!-- Fader 1 -->
  <rect x="40" y="80" width="20" height="120" rx="10" fill="#ffffff" opacity="0.3"/>
  <rect x="40" y="150" width="20" height="50" rx="10" fill="#ffffff"/>
  <circle cx="50" cy="145" r="15" fill="#ffffff"/>
  
  <!-- Fader 2 -->
  <rect x="85" y="80" width="20" height="120" rx="10" fill="#ffffff" opacity="0.3"/>
  <rect x="85" y="120" width="20" height="80" rx="10" fill="#ffffff"/>
  <circle cx="95" cy="115" r="15" fill="#ffffff"/>
  
  <!-- Fader 3 -->
  <rect x="130" y="80" width="20" height="120" rx="10" fill="#ffffff" opacity="0.3"/>
  <rect x="130" y="100" width="20" height="100" rx="10" fill="#ffffff"/>
  <circle cx="140" cy="95" r="15" fill="#ffffff"/>
  
  <!-- Fader 4 -->
  <rect x="175" y="80" width="20" height="120" rx="10" fill="#ffffff" opacity="0.3"/>
  <rect x="175" y="130" width="20" height="70" rx="10" fill="#ffffff"/>
  <circle cx="185" cy="125" r="15" fill="#ffffff"/>
  
  <!-- Sound wave -->
  <path d="M 30 220 Q 50 200, 70 220 T 110 220 T 150 220 T 190 220 T 230 220" 
        stroke="#ffffff" stroke-width="3" fill="none" opacity="0.5"/>
</svg>
